<svg width="1888" height="336" viewBox="0 0 1888 336" fill="none" xmlns="http://www.w3.org/2000/svg">
<g clip-path="url(#clip0_6_2)">
<path d="M596.23 336.3H548.59C529.47 336.3 513.97 320.8 513.97 301.68C513.97 282.56 529.47 267.06 548.59 267.06H596.95C650.77 267.06 696.32 224.94 697.92 171.14C699.58 115.24 654.59 69.23 599.05 69.23H230.96C213.85 69.23 198.9 82.11 197.75 99.18C196.5 117.9 211.37 133.53 229.82 133.53H377.85C433.02 133.53 479.71 176.7 481.35 231.85C483.05 289.15 436.93 336.3 380.01 336.3H260.01C240.89 336.3 225.39 320.8 225.39 301.68C225.39 282.56 240.89 267.06 260.01 267.06H378.87C395.97 267.06 410.93 254.18 412.08 237.11C413.33 218.39 398.46 202.76 380.01 202.76H231.98C176.81 202.76 130.12 159.59 128.48 104.44C126.78 47.16 172.9 0 229.83 0H599.06C692.86 0 768.97 77.2 767.18 171.4C765.43 263.46 688.31 336.3 596.24 336.3H596.23Z" fill="white"/>
<path d="M599.75 202.77C618.87 202.77 634.37 187.27 634.37 168.15C634.37 149.03 618.87 133.53 599.75 133.53C580.63 133.53 565.13 149.03 565.13 168.15C565.13 187.27 580.63 202.77 599.75 202.77Z" fill="white"/>
<path d="M163.06 336.3C182.18 336.3 197.68 320.8 197.68 301.68C197.68 282.56 182.18 267.06 163.06 267.06C143.94 267.06 128.44 282.56 128.44 301.68C128.44 320.8 143.94 336.3 163.06 336.3Z" fill="white"/>
<path d="M34.62 336.3C53.7401 336.3 69.24 320.8 69.24 301.68C69.24 282.56 53.7401 267.06 34.62 267.06C15.4999 267.06 0 282.56 0 301.68C0 320.8 15.4999 336.3 34.62 336.3Z" fill="white"/>
<path d="M59.59 134.83C78.7101 134.83 94.21 119.33 94.21 100.21C94.21 81.0899 78.7101 65.59 59.59 65.59C40.4699 65.59 24.97 81.0899 24.97 100.21C24.97 119.33 40.4699 134.83 59.59 134.83Z" fill="white"/>
<path d="M999.309 43.3699C958.909 43.3699 937.639 53.5999 937.639 69.7599C937.639 78.6399 943.289 84.5699 954.609 88.6099C975.879 96.1499 1007.93 93.7299 1047.52 98.8399C1096 105.03 1119.16 121.73 1119.16 154.32C1119.16 195.25 1081.99 219.22 1012.78 219.22C967.039 219.22 930.929 210.27 903.409 191.31C899.659 188.73 898.899 183.48 901.649 179.86L910.159 168.64C912.579 165.45 916.999 164.5 920.489 166.48C949.799 183.16 979.779 190.95 1013.05 190.95C1059.37 190.95 1084.15 177.49 1084.15 156.48C1084.15 128.74 1051.03 128.74 993.669 124.97C933.609 120.92 903.449 111.5 903.449 74.0699C903.449 36.6399 938.459 14.8199 1001.75 14.8199C1039.76 14.8199 1072.26 22.7499 1099.05 38.4299C1103.43 40.9899 1104.3 46.9899 1100.9 50.7599L1091.73 60.9399C1089.32 63.6099 1085.46 64.3099 1082.21 62.7599C1054.99 49.7599 1028.11 43.3599 999.329 43.3599L999.309 43.3699Z" fill="white"/>
<path d="M1365.25 194.45C1343.71 210.61 1313.54 220.3 1279.61 220.3C1245.68 220.3 1214.71 210.33 1193.43 194.18C1167.3 174.52 1154.11 148.67 1154.11 116.89C1154.11 85.11 1167.57 59.8 1193.96 39.87C1215.77 23.44 1246.21 13.48 1279.6 13.48C1312.99 13.48 1343.42 23.45 1364.97 39.87C1391.09 59.8 1404.55 85.92 1404.55 116.89C1404.55 147.86 1391.35 174.79 1365.23 194.45H1365.25ZM1341.82 61.41C1326.2 50.1 1304.12 43.1 1279.61 43.1C1225.21 43.1 1187.77 74.34 1187.77 116.89C1187.77 159.44 1223.59 190.68 1279.61 190.68C1335.63 190.68 1370.9 160.52 1370.9 116.89C1370.9 94.27 1361.21 75.69 1341.82 61.41Z" fill="white"/>
<path d="M1459.47 206.59V27.7299C1459.47 23.2799 1463.08 19.6799 1467.52 19.6799H1483.72C1488.17 19.6799 1491.77 23.2899 1491.77 27.7299V177.24C1491.77 181.69 1495.38 185.29 1499.82 185.29H1634.25C1638.7 185.29 1642.3 188.9 1642.3 193.34V206.58C1642.3 211.03 1638.69 214.63 1634.25 214.63H1467.51C1463.06 214.63 1459.46 211.02 1459.46 206.58L1459.47 206.59Z" fill="white"/>
<path d="M1672.88 206.59V27.7299C1672.88 23.2799 1676.49 19.6799 1680.93 19.6799H1861.41C1865.86 19.6799 1869.46 23.2899 1869.46 27.7299V40.9799C1869.46 45.4299 1865.85 49.0299 1861.41 49.0299H1713.24C1708.79 49.0299 1705.19 52.6399 1705.19 57.0799V90.7899C1705.19 95.2399 1708.8 98.8399 1713.24 98.8399H1811.32C1815.77 98.8399 1819.37 102.45 1819.37 106.89V120.14C1819.37 124.59 1815.76 128.19 1811.32 128.19H1713.24C1708.79 128.19 1705.19 131.8 1705.19 136.24V177.22C1705.19 181.67 1708.8 185.27 1713.24 185.27H1868.94C1873.39 185.27 1876.99 188.88 1876.99 193.32V206.56C1876.99 211.01 1873.38 214.61 1868.94 214.61H1680.92C1676.47 214.61 1672.87 211 1672.87 206.56L1672.88 206.59Z" fill="white"/>
<path d="M1453.74 292.48C1453.74 302.46 1449.83 311.17 1442.3 317.72C1435.45 323.78 1426.16 327.11 1415.89 327.11H1371.76C1370.14 327.11 1368.83 325.8 1368.83 324.18V259.21C1368.83 257.59 1370.14 256.28 1371.76 256.28H1413.64C1438.39 256.28 1453.75 270.56 1453.75 292.47L1453.74 292.48ZM1441.02 292.19C1441.02 277.12 1430.46 266.95 1414.61 266.95H1383.49C1381.87 266.95 1380.56 268.26 1380.56 269.88V313.53C1380.56 315.15 1381.87 316.46 1383.49 316.46H1416.86C1430.95 316.46 1441.02 306.38 1441.02 292.2V292.19Z" fill="white"/>
<path d="M1472.99 327.11V256.29H1484.73V327.11H1472.99Z" fill="white"/>
<path d="M1550.07 329.17C1537.74 329.17 1526.59 325.55 1518.86 319.68C1509.47 312.54 1504.68 303.15 1504.68 291.6C1504.68 280.05 1509.47 270.86 1519.06 263.62C1527.08 257.46 1538.23 254.03 1551.05 254.03C1565.5 254.03 1576.94 258.5 1586.63 268.19C1588.05 269.61 1587.7 272.01 1585.9 272.91L1580.35 275.69C1579.25 276.24 1577.91 276.04 1577.02 275.18C1570.1 268.47 1561.42 264.8 1550.08 264.8C1541.28 264.8 1533.16 267.34 1527.48 271.45C1520.44 276.64 1516.92 283.38 1516.92 291.6C1516.92 307.35 1530.03 318.4 1550.08 318.4C1563.4 318.4 1573.19 313.47 1578.49 304.5C1579.64 302.56 1578.2 300.11 1575.95 300.11H1550.56C1548.94 300.11 1547.63 298.8 1547.63 297.18V292.37C1547.63 290.75 1548.94 289.44 1550.56 289.44H1595.28V290.51C1595.28 313.5 1577.47 329.15 1550.08 329.15L1550.07 329.17Z" fill="white"/>
<path d="M1615.21 324.19V259.22C1615.21 257.6 1616.52 256.29 1618.14 256.29H1624.03C1625.65 256.29 1626.96 257.6 1626.96 259.22V324.19C1626.96 325.81 1625.65 327.12 1624.03 327.12H1618.14C1616.52 327.12 1615.21 325.81 1615.21 324.19Z" fill="white"/>
<path d="M1684.85 269.88V324.19C1684.85 325.81 1683.54 327.12 1681.92 327.12H1676.03C1674.41 327.12 1673.1 325.81 1673.1 324.19V269.88C1673.1 268.26 1671.79 266.95 1670.17 266.95H1642.17C1640.55 266.95 1639.24 265.64 1639.24 264.02V259.21C1639.24 257.59 1640.55 256.28 1642.17 256.28H1715.75C1717.37 256.28 1718.68 257.59 1718.68 259.21V264.02C1718.68 265.64 1717.37 266.95 1715.75 266.95H1687.75C1686.13 266.95 1684.82 268.26 1684.82 269.88H1684.85Z" fill="white"/>
<path d="M1786.44 325.54L1779.86 312.85C1779.36 311.88 1778.36 311.27 1777.26 311.27H1733.18C1732.09 311.27 1731.09 311.88 1730.58 312.85L1724 325.54C1723.5 326.51 1722.5 327.12 1721.4 327.12H1715.22C1713.02 327.12 1711.6 324.77 1712.63 322.83L1747 257.86C1747.51 256.9 1748.5 256.3 1749.59 256.3H1760.84C1761.92 256.3 1762.92 256.9 1763.43 257.86L1797.8 322.83C1798.83 324.78 1797.42 327.12 1795.21 327.12H1789.03C1787.94 327.12 1786.94 326.51 1786.43 325.54H1786.44ZM1752.68 271.27L1739.45 296.31C1738.42 298.26 1739.83 300.6 1742.04 300.6H1768.44C1770.64 300.6 1772.05 298.26 1771.03 296.31L1757.87 271.27C1756.77 269.19 1753.79 269.18 1752.69 271.27H1752.68Z" fill="white"/>
<path d="M1812.59 324.19V259.22C1812.59 257.6 1813.9 256.29 1815.52 256.29H1821.41C1823.03 256.29 1824.34 257.6 1824.34 259.22V313.53C1824.34 315.15 1825.65 316.46 1827.27 316.46H1876.1C1877.72 316.46 1879.03 317.77 1879.03 319.39V324.2C1879.03 325.82 1877.72 327.13 1876.1 327.13H1815.53C1813.91 327.13 1812.6 325.82 1812.6 324.2L1812.59 324.19Z" fill="white"/>
<path d="M995.169 327.01C993.549 327.01 992.239 325.7 992.239 324.08V269.09H991.949L957.469 312.38C956.299 313.85 954.049 313.85 952.889 312.38L918.689 269.1H918.399V324.09C918.399 325.71 917.089 327.02 915.469 327.02H909.579C907.959 327.02 906.649 325.71 906.649 324.09V259.12C906.649 257.5 907.959 256.19 909.579 256.19H919.819C920.709 256.19 921.559 256.6 922.109 257.3L952.979 296.16C954.149 297.63 956.389 297.63 957.559 296.16L988.529 257.29C989.089 256.59 989.929 256.19 990.819 256.19H1001.06C1002.68 256.19 1003.99 257.5 1003.99 259.12V324.09C1003.99 325.71 1002.68 327.02 1001.06 327.02H995.169V327.01Z" fill="white"/>
<path d="M1027.65 324.09V259.12C1027.65 257.5 1028.96 256.19 1030.58 256.19H1096.14C1097.76 256.19 1099.07 257.5 1099.07 259.12V263.93C1099.07 265.55 1097.76 266.86 1096.14 266.86H1042.32C1040.7 266.86 1039.39 268.17 1039.39 269.79V282.03C1039.39 283.65 1040.7 284.96 1042.32 284.96H1077.95C1079.57 284.96 1080.88 286.27 1080.88 287.89V292.7C1080.88 294.32 1079.57 295.63 1077.95 295.63H1042.32C1040.7 295.63 1039.39 296.94 1039.39 298.56V313.45C1039.39 315.07 1040.7 316.38 1042.32 316.38H1098.88C1100.5 316.38 1101.81 317.69 1101.81 319.31V324.12C1101.81 325.74 1100.5 327.05 1098.88 327.05H1030.58C1028.96 327.05 1027.65 325.74 1027.65 324.12V324.09Z" fill="white"/>
<path d="M1204.4 292.38C1204.4 302.36 1200.49 311.07 1192.96 317.62C1186.11 323.68 1176.82 327.01 1166.55 327.01H1119.5V256.19H1164.3C1189.05 256.19 1204.41 270.47 1204.41 292.38H1204.4ZM1191.68 292.09C1191.68 277.02 1181.12 266.85 1165.27 266.85H1131.23V316.35H1167.52C1181.61 316.35 1191.68 306.27 1191.68 292.09Z" fill="white"/>
<path d="M1223.65 324.09V259.12C1223.65 257.5 1224.96 256.19 1226.58 256.19H1232.47C1234.09 256.19 1235.4 257.5 1235.4 259.12V324.09C1235.4 325.71 1234.09 327.02 1232.47 327.02H1226.58C1224.96 327.02 1223.65 325.71 1223.65 324.09Z" fill="white"/>
<path d="M1323.98 325.44L1317.4 312.75C1316.9 311.78 1315.9 311.17 1314.8 311.17H1270.72C1269.63 311.17 1268.63 311.78 1268.12 312.75L1261.54 325.44C1261.04 326.41 1260.04 327.02 1258.94 327.02H1252.76C1250.56 327.02 1249.14 324.67 1250.17 322.73L1284.54 257.76C1285.05 256.8 1286.04 256.2 1287.13 256.2H1298.38C1299.46 256.2 1300.46 256.8 1300.97 257.76L1335.34 322.73C1336.37 324.68 1334.96 327.02 1332.75 327.02H1326.57C1325.48 327.02 1324.48 326.41 1323.97 325.44H1323.98ZM1290.22 271.17L1276.99 296.21C1275.96 298.16 1277.37 300.5 1279.58 300.5H1305.98C1308.18 300.5 1309.59 298.16 1308.57 296.21L1295.41 271.17C1294.31 269.09 1291.33 269.08 1290.23 271.17H1290.22Z" fill="white"/>
</g>
<defs>
<clipPath id="clip0_6_2">
<rect width="1888" height="336" fill="white"/>
</clipPath>
</defs>
</svg>
