<svg width="1801" height="337" viewBox="0 0 1801 337" fill="none" xmlns="http://www.w3.org/2000/svg">
<g clip-path="url(#clip0_6_2)">
<path d="M596.23 336.3H548.59C529.47 336.3 513.97 320.8 513.97 301.68C513.97 282.56 529.47 267.06 548.59 267.06H596.95C650.77 267.06 696.32 224.94 697.92 171.14C699.58 115.24 654.59 69.23 599.05 69.23H230.96C213.85 69.23 198.9 82.11 197.75 99.18C196.5 117.9 211.37 133.53 229.82 133.53H377.85C433.02 133.53 479.71 176.7 481.35 231.85C483.05 289.15 436.93 336.3 380.01 336.3H260.01C240.89 336.3 225.39 320.8 225.39 301.68C225.39 282.56 240.89 267.06 260.01 267.06H378.87C395.97 267.06 410.93 254.18 412.08 237.11C413.33 218.39 398.46 202.76 380.01 202.76H231.98C176.81 202.76 130.12 159.59 128.48 104.44C126.78 47.16 172.9 0 229.83 0H599.06C692.86 0 768.97 77.2 767.18 171.4C765.43 263.46 688.31 336.3 596.24 336.3H596.23Z" fill="white"/>
<path d="M599.75 202.77C618.87 202.77 634.37 187.27 634.37 168.15C634.37 149.03 618.87 133.53 599.75 133.53C580.63 133.53 565.13 149.03 565.13 168.15C565.13 187.27 580.63 202.77 599.75 202.77Z" fill="white"/>
<path d="M163.06 336.3C182.18 336.3 197.68 320.8 197.68 301.68C197.68 282.56 182.18 267.06 163.06 267.06C143.94 267.06 128.44 282.56 128.44 301.68C128.44 320.8 143.94 336.3 163.06 336.3Z" fill="white"/>
<path d="M34.62 336.3C53.7401 336.3 69.24 320.8 69.24 301.68C69.24 282.56 53.7401 267.06 34.62 267.06C15.4999 267.06 0 282.56 0 301.68C0 320.8 15.4999 336.3 34.62 336.3Z" fill="white"/>
<path d="M59.59 134.83C78.7101 134.83 94.21 119.33 94.21 100.21C94.21 81.0899 78.7101 65.59 59.59 65.59C40.4699 65.59 24.97 81.0899 24.97 100.21C24.97 119.33 40.4699 134.83 59.59 134.83Z" fill="white"/>
<path d="M920.33 43.3699C879.93 43.3699 858.66 53.5999 858.66 69.7599C858.66 78.6399 864.31 84.5699 875.63 88.6099C896.9 96.1499 928.95 93.7299 968.54 98.8399C1017.02 105.03 1040.18 121.73 1040.18 154.32C1040.18 195.25 1003.01 219.22 933.8 219.22C888.06 219.22 851.95 210.27 824.43 191.31C820.68 188.73 819.92 183.48 822.67 179.86L831.18 168.64C833.6 165.45 838.02 164.5 841.51 166.48C870.82 183.16 900.8 190.95 934.07 190.95C980.39 190.95 1005.17 177.49 1005.17 156.48C1005.17 128.74 972.05 128.74 914.69 124.97C854.63 120.92 824.47 111.5 824.47 74.0699C824.47 36.6399 859.48 14.8199 922.77 14.8199C960.78 14.8199 993.28 22.7499 1020.07 38.4299C1024.45 40.9899 1025.32 46.9899 1021.92 50.7599L1012.75 60.9399C1010.34 63.6099 1006.48 64.3099 1003.23 62.7599C976.01 49.7599 949.13 43.3599 920.35 43.3599L920.33 43.3699Z" fill="white"/>
<path d="M1286.27 194.45C1264.73 210.61 1234.56 220.3 1200.63 220.3C1166.7 220.3 1135.73 210.33 1114.45 194.18C1088.32 174.52 1075.13 148.67 1075.13 116.89C1075.13 85.11 1088.59 59.8 1114.98 39.87C1136.79 23.44 1167.23 13.48 1200.62 13.48C1234.01 13.48 1264.44 23.45 1285.99 39.87C1312.11 59.8 1325.57 85.92 1325.57 116.89C1325.57 147.86 1312.37 174.79 1286.25 194.45H1286.27ZM1262.84 61.41C1247.22 50.1 1225.14 43.1 1200.63 43.1C1146.23 43.1 1108.79 74.34 1108.79 116.89C1108.79 159.44 1144.61 190.68 1200.63 190.68C1256.65 190.68 1291.92 160.52 1291.92 116.89C1291.92 94.27 1282.23 75.69 1262.84 61.41Z" fill="white"/>
<path d="M1380.49 206.59V27.7299C1380.49 23.2799 1384.1 19.6799 1388.54 19.6799H1404.74C1409.19 19.6799 1412.79 23.2899 1412.79 27.7299V177.24C1412.79 181.69 1416.4 185.29 1420.84 185.29H1555.27C1559.72 185.29 1563.32 188.9 1563.32 193.34V206.58C1563.32 211.03 1559.71 214.63 1555.27 214.63H1388.53C1384.08 214.63 1380.48 211.02 1380.48 206.58L1380.49 206.59Z" fill="white"/>
<path d="M1593.9 206.59V27.7299C1593.9 23.2799 1597.51 19.6799 1601.95 19.6799H1782.43C1786.88 19.6799 1790.48 23.2899 1790.48 27.7299V40.9799C1790.48 45.4299 1786.87 49.0299 1782.43 49.0299H1634.26C1629.81 49.0299 1626.21 52.6399 1626.21 57.0799V90.7899C1626.21 95.2399 1629.82 98.8399 1634.26 98.8399H1732.34C1736.79 98.8399 1740.39 102.45 1740.39 106.89V120.14C1740.39 124.59 1736.78 128.19 1732.34 128.19H1634.26C1629.81 128.19 1626.21 131.8 1626.21 136.24V177.22C1626.21 181.67 1629.82 185.27 1634.26 185.27H1789.96C1794.41 185.27 1798.01 188.88 1798.01 193.32V206.56C1798.01 211.01 1794.4 214.61 1789.96 214.61H1601.94C1597.49 214.61 1593.89 211 1593.89 206.56L1593.9 206.59Z" fill="white"/>
<path d="M1374.76 292.48C1374.76 302.46 1370.85 311.17 1363.32 317.72C1356.47 323.78 1347.18 327.11 1336.91 327.11H1292.78C1291.16 327.11 1289.85 325.8 1289.85 324.18V259.21C1289.85 257.59 1291.16 256.28 1292.78 256.28H1334.66C1359.41 256.28 1374.77 270.56 1374.77 292.47L1374.76 292.48ZM1362.04 292.19C1362.04 277.12 1351.48 266.95 1335.63 266.95H1304.51C1302.89 266.95 1301.58 268.26 1301.58 269.88V313.53C1301.58 315.15 1302.89 316.46 1304.51 316.46H1337.88C1351.97 316.46 1362.04 306.38 1362.04 292.2V292.19Z" fill="white"/>
<path d="M1394.01 327.11V256.29H1405.75V327.11H1394.01Z" fill="white"/>
<path d="M1471.09 329.17C1458.76 329.17 1447.61 325.55 1439.88 319.68C1430.49 312.54 1425.7 303.15 1425.7 291.6C1425.7 280.05 1430.49 270.86 1440.08 263.62C1448.1 257.46 1459.25 254.03 1472.07 254.03C1486.52 254.03 1497.96 258.5 1507.65 268.19C1509.07 269.61 1508.72 272.01 1506.92 272.91L1501.37 275.69C1500.27 276.24 1498.93 276.04 1498.04 275.18C1491.12 268.47 1482.44 264.8 1471.1 264.8C1462.3 264.8 1454.18 267.34 1448.5 271.45C1441.46 276.64 1437.94 283.38 1437.94 291.6C1437.94 307.35 1451.05 318.4 1471.1 318.4C1484.42 318.4 1494.21 313.47 1499.51 304.5C1500.66 302.56 1499.22 300.11 1496.97 300.11H1471.58C1469.96 300.11 1468.65 298.8 1468.65 297.18V292.37C1468.65 290.75 1469.96 289.44 1471.58 289.44H1516.3V290.51C1516.3 313.5 1498.49 329.15 1471.1 329.15L1471.09 329.17Z" fill="white"/>
<path d="M1536.23 324.19V259.22C1536.23 257.6 1537.54 256.29 1539.16 256.29H1545.05C1546.67 256.29 1547.98 257.6 1547.98 259.22V324.19C1547.98 325.81 1546.67 327.12 1545.05 327.12H1539.16C1537.54 327.12 1536.23 325.81 1536.23 324.19Z" fill="white"/>
<path d="M1605.87 269.88V324.19C1605.87 325.81 1604.56 327.12 1602.94 327.12H1597.05C1595.43 327.12 1594.12 325.81 1594.12 324.19V269.88C1594.12 268.26 1592.81 266.95 1591.19 266.95H1563.19C1561.57 266.95 1560.26 265.64 1560.26 264.02V259.21C1560.26 257.59 1561.57 256.28 1563.19 256.28H1636.77C1638.39 256.28 1639.7 257.59 1639.7 259.21V264.02C1639.7 265.64 1638.39 266.95 1636.77 266.95H1608.77C1607.15 266.95 1605.84 268.26 1605.84 269.88H1605.87Z" fill="white"/>
<path d="M1707.46 325.54L1700.88 312.85C1700.38 311.88 1699.38 311.27 1698.28 311.27H1654.2C1653.11 311.27 1652.11 311.88 1651.6 312.85L1645.02 325.54C1644.52 326.51 1643.52 327.12 1642.42 327.12H1636.24C1634.04 327.12 1632.62 324.77 1633.65 322.83L1668.02 257.86C1668.53 256.9 1669.52 256.3 1670.61 256.3H1681.86C1682.94 256.3 1683.94 256.9 1684.45 257.86L1718.82 322.83C1719.85 324.78 1718.44 327.12 1716.23 327.12H1710.05C1708.96 327.12 1707.96 326.51 1707.45 325.54H1707.46ZM1673.7 271.27L1660.47 296.31C1659.44 298.26 1660.85 300.6 1663.06 300.6H1689.46C1691.66 300.6 1693.07 298.26 1692.05 296.31L1678.89 271.27C1677.79 269.19 1674.81 269.18 1673.71 271.27H1673.7Z" fill="white"/>
<path d="M1733.61 324.19V259.22C1733.61 257.6 1734.92 256.29 1736.54 256.29H1742.43C1744.05 256.29 1745.36 257.6 1745.36 259.22V313.53C1745.36 315.15 1746.67 316.46 1748.29 316.46H1797.12C1798.74 316.46 1800.05 317.77 1800.05 319.39V324.2C1800.05 325.82 1798.74 327.13 1797.12 327.13H1736.55C1734.93 327.13 1733.62 325.82 1733.62 324.2L1733.61 324.19Z" fill="white"/>
<path d="M916.19 327.01C914.57 327.01 913.26 325.7 913.26 324.08V269.09H912.97L878.49 312.38C877.32 313.85 875.07 313.85 873.91 312.38L839.71 269.1H839.42V324.09C839.42 325.71 838.11 327.02 836.49 327.02H830.6C828.98 327.02 827.67 325.71 827.67 324.09V259.12C827.67 257.5 828.98 256.19 830.6 256.19H840.84C841.73 256.19 842.58 256.6 843.13 257.3L874 296.16C875.17 297.63 877.41 297.63 878.58 296.16L909.55 257.29C910.11 256.59 910.95 256.19 911.84 256.19H922.08C923.7 256.19 925.01 257.5 925.01 259.12V324.09C925.01 325.71 923.7 327.02 922.08 327.02H916.19V327.01Z" fill="white"/>
<path d="M948.67 324.09V259.12C948.67 257.5 949.98 256.19 951.6 256.19H1017.16C1018.78 256.19 1020.09 257.5 1020.09 259.12V263.93C1020.09 265.55 1018.78 266.86 1017.16 266.86H963.34C961.72 266.86 960.41 268.17 960.41 269.79V282.03C960.41 283.65 961.72 284.96 963.34 284.96H998.97C1000.59 284.96 1001.9 286.27 1001.9 287.89V292.7C1001.9 294.32 1000.59 295.63 998.97 295.63H963.34C961.72 295.63 960.41 296.94 960.41 298.56V313.45C960.41 315.07 961.72 316.38 963.34 316.38H1019.9C1021.52 316.38 1022.83 317.69 1022.83 319.31V324.12C1022.83 325.74 1021.52 327.05 1019.9 327.05H951.6C949.98 327.05 948.67 325.74 948.67 324.12V324.09Z" fill="white"/>
<path d="M1125.42 292.38C1125.42 302.36 1121.51 311.07 1113.98 317.62C1107.13 323.68 1097.84 327.01 1087.57 327.01H1040.52V256.19H1085.32C1110.07 256.19 1125.43 270.47 1125.43 292.38H1125.42ZM1112.7 292.09C1112.7 277.02 1102.14 266.85 1086.29 266.85H1052.25V316.35H1088.54C1102.63 316.35 1112.7 306.27 1112.7 292.09Z" fill="white"/>
<path d="M1144.67 324.09V259.12C1144.67 257.5 1145.98 256.19 1147.6 256.19H1153.49C1155.11 256.19 1156.42 257.5 1156.42 259.12V324.09C1156.42 325.71 1155.11 327.02 1153.49 327.02H1147.6C1145.98 327.02 1144.67 325.71 1144.67 324.09Z" fill="white"/>
<path d="M1245 325.44L1238.42 312.75C1237.92 311.78 1236.92 311.17 1235.82 311.17H1191.74C1190.65 311.17 1189.65 311.78 1189.14 312.75L1182.56 325.44C1182.06 326.41 1181.06 327.02 1179.96 327.02H1173.78C1171.58 327.02 1170.16 324.67 1171.19 322.73L1205.56 257.76C1206.07 256.8 1207.06 256.2 1208.15 256.2H1219.4C1220.48 256.2 1221.48 256.8 1221.99 257.76L1256.36 322.73C1257.39 324.68 1255.98 327.02 1253.77 327.02H1247.59C1246.5 327.02 1245.5 326.41 1244.99 325.44H1245ZM1211.24 271.17L1198.01 296.21C1196.98 298.16 1198.39 300.5 1200.6 300.5H1227C1229.2 300.5 1230.61 298.16 1229.59 296.21L1216.43 271.17C1215.33 269.09 1212.35 269.08 1211.25 271.17H1211.24Z" fill="white"/>
</g>
<defs>
<clipPath id="clip0_6_2">
<rect width="1800.03" height="336.3" fill="white"/>
</clipPath>
</defs>
</svg>
