<svg width="569" height="250" viewBox="0 0 569 250" fill="none" xmlns="http://www.w3.org/2000/svg">
<g clip-path="url(#clip0_1_6)">
<path d="M441.83 249.21H406.53C392.36 249.21 380.88 237.72 380.88 223.56C380.88 209.39 392.37 197.91 406.53 197.91H442.37C482.25 197.91 516.01 166.7 517.19 126.83C518.42 85.4 485.08 51.31 443.93 51.31H171.15C158.47 51.31 147.39 60.85 146.54 73.5C145.61 87.37 156.63 98.95 170.31 98.95H280.01C320.89 98.95 355.49 130.94 356.7 171.81C357.96 214.27 323.79 249.21 281.6 249.21H192.68C178.51 249.21 167.03 237.72 167.03 223.56C167.03 209.39 178.52 197.91 192.68 197.91H280.76C293.44 197.91 304.52 188.37 305.37 175.72C306.3 161.85 295.28 150.27 281.6 150.27H171.9C131.02 150.27 96.42 118.28 95.21 77.41C93.95 34.94 128.13 0 170.31 0H443.92C513.43 0 569.83 57.21 568.5 127.01C567.21 195.23 510.06 249.21 441.83 249.21Z" fill="white"/>
<path d="M444.44 150.26C458.606 150.26 470.09 138.776 470.09 124.61C470.09 110.444 458.606 98.96 444.44 98.96C430.274 98.96 418.79 110.444 418.79 124.61C418.79 138.776 430.274 150.26 444.44 150.26Z" fill="white"/>
<path d="M120.83 249.21C134.996 249.21 146.48 237.726 146.48 223.56C146.48 209.394 134.996 197.91 120.83 197.91C106.664 197.91 95.18 209.394 95.18 223.56C95.18 237.726 106.664 249.21 120.83 249.21Z" fill="white"/>
<path d="M25.65 249.21C39.8161 249.21 51.3 237.726 51.3 223.56C51.3 209.394 39.8161 197.91 25.65 197.91C11.4839 197.91 0 209.394 0 223.56C0 237.726 11.4839 249.21 25.65 249.21Z" fill="white"/>
<path d="M44.16 99.91C58.3261 99.91 69.81 88.4261 69.81 74.26C69.81 60.0939 58.3261 48.61 44.16 48.61C29.9939 48.61 18.51 60.0939 18.51 74.26C18.51 88.4261 29.9939 99.91 44.16 99.91Z" fill="white"/>
</g>
<defs>
<clipPath id="clip0_1_6">
<rect width="568.53" height="249.21" fill="white"/>
</clipPath>
</defs>
</svg>
